<svg width="40" height="40" viewBox="0 0 40 40" fill="none" xmlns="http://www.w3.org/2000/svg">
<path d="M19.0304 27.2803C19.171 27.1397 19.25 26.9489 19.25 26.75C19.25 26.5511 19.171 26.3604 19.0304 26.2197L13.5606 20.75H28.25C28.4489 20.75 28.6397 20.671 28.7803 20.5303C28.921 20.3897 29 20.1989 29 20C29 19.8011 28.921 19.6103 28.7803 19.4697C28.6397 19.329 28.4489 19.25 28.25 19.25H13.5606L19.0304 13.7803C19.171 13.6397 19.25 13.4489 19.25 13.25C19.25 13.0511 19.171 12.8603 19.0303 12.7197C18.8897 12.579 18.6989 12.5 18.5 12.5C18.3011 12.5 18.1103 12.579 17.9696 12.7197L11.2196 19.4697C11.2172 19.4721 11.2152 19.4748 11.2128 19.4773C11.198 19.4925 11.1836 19.5081 11.1701 19.5245C11.1626 19.5336 11.156 19.5434 11.149 19.5528C11.1414 19.5629 11.1335 19.5729 11.1264 19.5835C11.1191 19.5944 11.1127 19.6057 11.1061 19.617C11.1002 19.6268 11.0941 19.6363 11.0886 19.6464C11.0826 19.6577 11.0775 19.6693 11.0721 19.6808C11.067 19.6915 11.0617 19.7021 11.0571 19.713C11.0525 19.7241 11.0488 19.7354 11.0448 19.7467C11.0406 19.7585 11.036 19.7702 11.0324 19.7823C11.029 19.7935 11.0265 19.8049 11.0236 19.8163C11.0205 19.8286 11.017 19.8409 11.0145 19.8535C11.0119 19.8666 11.0104 19.8798 11.0085 19.8929C11.0069 19.904 11.0048 19.9148 11.0037 19.926C11.0013 19.9506 11 19.9753 11 20C11 20.0247 11.0013 20.0494 11.0037 20.074C11.0048 20.0852 11.0069 20.0961 11.0085 20.1071C11.0104 20.1203 11.0119 20.1335 11.0145 20.1465C11.017 20.1591 11.0205 20.1714 11.0236 20.1838C11.0265 20.1951 11.029 20.2065 11.0324 20.2177C11.036 20.2298 11.0406 20.2415 11.0448 20.2533C11.0488 20.2646 11.0525 20.276 11.0571 20.287C11.0617 20.298 11.067 20.3085 11.0721 20.3192C11.0775 20.3307 11.0826 20.3423 11.0886 20.3536C11.0941 20.3637 11.1002 20.3733 11.1061 20.3831C11.1127 20.3943 11.1191 20.4056 11.1264 20.4165C11.1335 20.4271 11.1414 20.4371 11.149 20.4473C11.156 20.4567 11.1626 20.4664 11.1701 20.4755C11.1838 20.4922 11.1984 20.5081 11.2135 20.5236C11.2157 20.5258 11.2175 20.5282 11.2196 20.5303L17.9696 27.2803C18.0393 27.35 18.122 27.4052 18.213 27.4429C18.304 27.4806 18.4015 27.5 18.5 27.5C18.5985 27.5 18.696 27.4806 18.787 27.4429C18.878 27.4052 18.9607 27.35 19.0304 27.2803Z" fill="white"/>
</svg>
