<svg width="16" height="16" viewBox="0 0 16 16" fill="none" xmlns="http://www.w3.org/2000/svg">
<path d="M8.70712 8L12.8536 3.85354C12.9472 3.75976 12.9998 3.63261 12.9998 3.50006C12.9998 3.36751 12.9471 3.2404 12.8534 3.14667C12.7596 3.05294 12.6325 3.00027 12.5 3.00023C12.3674 3.00019 12.2403 3.05278 12.1465 3.14645L8.00003 7.2929L3.85357 3.14645C3.75979 3.05278 3.63264 3.00019 3.50009 3.00023C3.36754 3.00027 3.24043 3.05294 3.1467 3.14667C3.05298 3.2404 3.0003 3.36751 3.00026 3.50006C3.00022 3.63261 3.05281 3.75976 3.14648 3.85354L7.29294 8L3.14648 12.1465C3.10001 12.1929 3.06313 12.248 3.03797 12.3087C3.0128 12.3693 2.99984 12.4344 2.99982 12.5001C2.9998 12.5657 3.01272 12.6308 3.03785 12.6915C3.06297 12.7522 3.09981 12.8073 3.14626 12.8538C3.19271 12.9002 3.24785 12.9371 3.30854 12.9622C3.36923 12.9873 3.43428 13.0002 3.49996 13.0002C3.56565 13.0002 3.63069 12.9872 3.69136 12.9621C3.75204 12.9369 3.80716 12.9 3.85357 12.8535L8.00003 8.70709L12.1465 12.8535C12.2403 12.9472 12.3674 12.9998 12.5 12.9998C12.6325 12.9997 12.7596 12.9471 12.8534 12.8533C12.9471 12.7596 12.9998 12.6325 12.9998 12.4999C12.9998 12.3674 12.9472 12.2402 12.8536 12.1465L8.70712 8Z" fill="white"/>
</svg>
