<svg width="16" height="16" viewBox="0 0 16 16" fill="none" xmlns="http://www.w3.org/2000/svg">
<path d="M14 5.5H10.9627L11.4919 2.58942C11.5037 2.52482 11.5026 2.45853 11.4887 2.39435C11.4748 2.33018 11.4485 2.26936 11.4111 2.21537C11.3737 2.16139 11.3261 2.1153 11.2709 2.07973C11.2157 2.04415 11.154 2.0198 11.0894 2.00806C11.0248 1.99632 10.9585 1.99742 10.8944 2.01129C10.8302 2.02516 10.7694 2.05154 10.7154 2.08892C10.6614 2.1263 10.6153 2.17394 10.5797 2.22913C10.5442 2.28433 10.5198 2.34598 10.5081 2.41059L9.94635 5.5H6.96274L7.49194 2.58942C7.50369 2.52482 7.50259 2.45853 7.48871 2.39435C7.47484 2.33018 7.44846 2.26936 7.41108 2.21537C7.3737 2.16139 7.32606 2.1153 7.27087 2.07973C7.21568 2.04415 7.15402 2.0198 7.08942 2.00806C7.02481 1.99632 6.95853 1.99742 6.89435 2.01129C6.83017 2.02516 6.76935 2.05154 6.71537 2.08892C6.66139 2.1263 6.61529 2.17394 6.57972 2.22913C6.54415 2.28433 6.5198 2.34598 6.50806 2.41059L5.94635 5.5H2.72729C2.59469 5.5 2.46751 5.55268 2.37374 5.64645C2.27997 5.74022 2.22729 5.8674 2.22729 6C2.22729 6.13261 2.27997 6.25979 2.37374 6.35356C2.46751 6.44732 2.59469 6.5 2.72729 6.5H5.76453L5.21906 9.5H2C1.86739 9.5 1.74021 9.55268 1.64645 9.64645C1.55268 9.74022 1.5 9.86739 1.5 10C1.5 10.1326 1.55268 10.2598 1.64645 10.3536C1.74021 10.4473 1.86739 10.5 2 10.5H5.03726L4.50806 13.4106C4.49631 13.4752 4.49741 13.5415 4.51129 13.6057C4.52516 13.6698 4.55154 13.7306 4.58892 13.7846C4.66441 13.8937 4.78011 13.9682 4.91058 13.9919C5.04106 14.0157 5.1756 13.9866 5.28463 13.9111C5.39366 13.8356 5.46823 13.7199 5.49194 13.5894L6.05365 10.5H9.03726L8.50806 13.4106C8.49631 13.4752 8.49741 13.5415 8.51129 13.6057C8.52516 13.6698 8.55154 13.7306 8.58892 13.7846C8.6263 13.8386 8.67394 13.8847 8.72913 13.9203C8.78432 13.9559 8.84598 13.9802 8.91058 13.9919C8.97519 14.0037 9.04147 14.0026 9.10565 13.9887C9.16983 13.9748 9.23065 13.9485 9.28463 13.9111C9.33861 13.8737 9.38471 13.8261 9.42028 13.7709C9.45585 13.7157 9.4802 13.654 9.49194 13.5894L10.0536 10.5H13.2727C13.4053 10.5 13.5325 10.4473 13.6263 10.3536C13.72 10.2598 13.7727 10.1326 13.7727 10C13.7727 9.86739 13.72 9.74022 13.6263 9.64645C13.5325 9.55268 13.4053 9.5 13.2727 9.5H10.2355L10.7809 6.5H14C14.1326 6.5 14.2598 6.44732 14.3536 6.35356C14.4473 6.25979 14.5 6.13261 14.5 6C14.5 5.8674 14.4473 5.74022 14.3536 5.64645C14.2598 5.55268 14.1326 5.5 14 5.5ZM9.21906 9.5H6.23547L6.78094 6.5H9.76453L9.21906 9.5Z" fill="#121212"/>
</svg>
