<svg width="219" height="24" viewBox="0 0 219 24" fill="none" xmlns="http://www.w3.org/2000/svg">
<path fill-rule="evenodd" clip-rule="evenodd" d="M218.694 23.5911H215.659L211.475 16.3722L208.581 19.8322V23.5911H205.939V0H208.581V15.7274L215.171 7.86369H218.615L213.268 14.2333L218.694 23.5911ZM196.549 23.5911H193.906V7.86369H196.549V9.82961C197.104 9.09567 197.807 8.51376 198.656 8.08387C199.505 7.64351 200.428 7.42333 201.424 7.42333C202.032 7.42333 202.619 7.50196 203.186 7.65924L202.116 10.3014C201.686 10.1651 201.267 10.097 200.858 10.097C200.072 10.097 199.348 10.291 198.688 10.6789C198.037 11.0564 197.518 11.5701 197.131 12.2202C196.743 12.8702 196.549 13.5937 196.549 14.3906V23.5911ZM178.533 22.8833C179.728 23.6278 181.05 24 182.497 24C183.587 24 184.604 23.785 185.548 23.3552C186.502 22.9253 187.335 22.3329 188.048 21.578C188.772 20.8126 189.338 19.9318 189.747 18.9358C190.156 17.9397 190.36 16.8702 190.36 15.7274C190.36 14.1966 190.004 12.8021 189.291 11.5439C188.588 10.2857 187.639 9.2844 186.444 8.53997C185.259 7.79554 183.943 7.42333 182.497 7.42333C181.417 7.42333 180.4 7.63827 179.445 8.06815C178.491 8.49803 177.652 9.09567 176.929 9.86107C176.216 10.616 175.655 11.4967 175.246 12.5033C174.837 13.4993 174.633 14.574 174.633 15.7274C174.633 17.2477 174.984 18.6369 175.687 19.8951C176.4 21.1428 177.348 22.1389 178.533 22.8833ZM185.154 20.5871C184.368 21.1009 183.482 21.3578 182.497 21.3578C181.553 21.3578 180.683 21.1114 179.886 20.6186C179.089 20.1153 178.455 19.439 177.983 18.5898C177.511 17.73 177.275 16.7759 177.275 15.7274C177.275 14.7103 177.506 13.7719 177.967 12.9122C178.428 12.0524 179.052 11.3657 179.839 10.8519C180.625 10.3276 181.511 10.0655 182.497 10.0655C183.472 10.0655 184.352 10.3224 185.139 10.8362C185.925 11.3499 186.549 12.0367 187.01 12.8965C187.482 13.7562 187.718 14.6999 187.718 15.7274C187.718 16.7339 187.487 17.6671 187.026 18.5269C186.575 19.3761 185.951 20.0629 185.154 20.5871ZM153.792 23.5911L148.161 1.57274H150.882L155.317 18.9515L159.737 1.57274H162.112L166.547 18.9515L170.966 1.57274H173.687L168.088 23.5911H165.006L160.932 7.64351L156.859 23.5911H153.792ZM141.953 23.5754C142.236 23.8585 142.577 24 142.975 24C143.384 24 143.73 23.8585 144.013 23.5754C144.296 23.2923 144.438 22.9463 144.438 22.5374C144.438 22.1494 144.296 21.8139 144.013 21.5308C143.73 21.2477 143.384 21.1062 142.975 21.1062C142.577 21.1062 142.236 21.2477 141.953 21.5308C141.68 21.8139 141.544 22.1494 141.544 22.5374C141.544 22.9463 141.68 23.2923 141.953 23.5754ZM132.572 23.8899C131.723 23.8584 130.895 23.7012 130.087 23.4181C129.29 23.1245 128.588 22.7313 127.98 22.2385C127.382 21.7352 126.947 21.1586 126.674 20.5085L128.939 19.5334C129.096 19.8899 129.379 20.2254 129.788 20.54C130.197 20.8545 130.669 21.1061 131.204 21.2949C131.739 21.4836 132.279 21.578 132.824 21.578C133.4 21.578 133.94 21.4888 134.444 21.3106C134.947 21.1324 135.356 20.8702 135.67 20.5242C135.995 20.1677 136.158 19.7431 136.158 19.2503C136.158 18.7261 135.98 18.3172 135.623 18.0236C135.277 17.7195 134.837 17.4836 134.302 17.3158C133.778 17.1376 133.243 16.9698 132.698 16.8126C131.618 16.54 130.653 16.2149 129.804 15.8375C128.955 15.4495 128.284 14.962 127.791 14.3748C127.309 13.7772 127.068 13.017 127.068 12.0944C127.068 11.1193 127.335 10.2752 127.87 9.56224C128.415 8.84927 129.128 8.29881 130.009 7.91087C130.889 7.52292 131.833 7.32895 132.839 7.32895C134.108 7.32895 135.267 7.60156 136.315 8.14678C137.364 8.69199 138.145 9.43118 138.659 10.3643L136.535 11.6068C136.357 11.2293 136.085 10.8991 135.718 10.616C135.351 10.3224 134.931 10.0917 134.459 9.92397C133.988 9.75621 133.505 9.66709 133.012 9.65661C132.404 9.63564 131.833 9.71427 131.298 9.89252C130.774 10.0708 130.349 10.3434 130.024 10.7103C129.71 11.0668 129.552 11.5124 129.552 12.0472C129.552 12.5714 129.72 12.9698 130.056 13.2424C130.402 13.5151 130.847 13.7352 131.393 13.903C131.948 14.0603 132.551 14.2438 133.201 14.4535C134.155 14.7575 135.047 15.1088 135.875 15.5072C136.703 15.9056 137.369 16.4037 137.872 17.0013C138.386 17.5989 138.638 18.3381 138.627 19.2189C138.627 20.1835 138.339 21.0275 137.762 21.751C137.185 22.4639 136.436 23.0092 135.513 23.3866C134.601 23.7641 133.621 23.9318 132.572 23.8899ZM112.341 22.8833C113.536 23.6278 114.857 24 116.304 24C117.394 24 118.412 23.785 119.355 23.3552C120.309 22.9253 121.143 22.3329 121.856 21.578C122.579 20.8126 123.145 19.9318 123.554 18.9358C123.963 17.9397 124.168 16.8702 124.168 15.7274C124.168 14.1966 123.811 12.8021 123.098 11.5439C122.396 10.2857 121.447 9.2844 120.252 8.53997C119.067 7.79554 117.751 7.42333 116.304 7.42333C115.224 7.42333 114.207 7.63827 113.253 8.06815C112.299 8.49803 111.46 9.09567 110.737 9.86107C110.024 10.616 109.463 11.4967 109.054 12.5033C108.645 13.4993 108.44 14.574 108.44 15.7274C108.44 17.2477 108.792 18.6369 109.494 19.8951C110.207 21.1428 111.156 22.1389 112.341 22.8833ZM118.962 20.5871C118.176 21.1009 117.29 21.3578 116.304 21.3578C115.36 21.3578 114.49 21.1114 113.693 20.6186C112.896 20.1153 112.262 19.439 111.79 18.5898C111.318 17.73 111.083 16.7759 111.083 15.7274C111.083 14.7103 111.313 13.7719 111.775 12.9122C112.236 12.0524 112.86 11.3657 113.646 10.8519C114.433 10.3276 115.318 10.0655 116.304 10.0655C117.279 10.0655 118.16 10.3224 118.946 10.8362C119.733 11.3499 120.356 12.0367 120.818 12.8965C121.29 13.7562 121.526 14.6999 121.526 15.7274C121.526 16.7339 121.295 17.6671 120.834 18.5269C120.383 19.3761 119.759 20.0629 118.962 20.5871ZM80.7946 23.5911V7.86369H83.4368V9.82961C83.9925 9.09567 84.6897 8.51376 85.5285 8.08387C86.3778 7.64351 87.3005 7.42333 88.2965 7.42333C89.4604 7.42333 90.5246 7.70642 91.4892 8.2726C92.4538 8.83879 93.214 9.58846 93.7697 10.5216C94.3254 9.58846 95.0803 8.83879 96.0344 8.2726C96.999 7.70642 98.058 7.42333 99.2113 7.42333C100.396 7.42333 101.471 7.71166 102.435 8.28833C103.4 8.85452 104.165 9.61992 104.732 10.5845C105.308 11.5491 105.597 12.6238 105.597 13.8086V23.5911H102.954V14.4377C102.954 13.6619 102.766 12.9436 102.388 12.2831C102.011 11.6225 101.502 11.093 100.863 10.6946C100.223 10.2962 99.5154 10.097 98.7395 10.097C97.9636 10.097 97.2559 10.2857 96.6163 10.6632C95.9767 11.0301 95.4682 11.5439 95.0908 12.2044C94.7133 12.8545 94.5246 13.5989 94.5246 14.4377V23.5911H91.8824V14.4377C91.8824 13.5989 91.6937 12.8545 91.3162 12.2044C90.9387 11.5439 90.425 11.0301 89.7749 10.6632C89.1353 10.2857 88.4276 10.097 87.6517 10.097C86.8863 10.097 86.1786 10.2962 85.5285 10.6946C84.8889 11.093 84.3804 11.6225 84.003 12.2831C83.6255 12.9436 83.4368 13.6619 83.4368 14.4377V23.5911H80.7946ZM68.6163 23.4181C69.4237 23.7012 70.252 23.8584 71.1013 23.8899C72.1498 23.9318 73.1301 23.7641 74.0423 23.3866C74.965 23.0092 75.7146 22.4639 76.2913 21.751C76.868 21.0275 77.1563 20.1835 77.1563 19.2189C77.1668 18.3381 76.9152 17.5989 76.4014 17.0013C75.8981 16.4037 75.2323 15.9056 74.404 15.5072C73.5757 15.1088 72.6845 14.7575 71.7304 14.4535C71.0803 14.2438 70.4774 14.0603 69.9217 13.903C69.3765 13.7352 68.9309 13.5151 68.5849 13.2424C68.2494 12.9698 68.0816 12.5714 68.0816 12.0472C68.0816 11.5124 68.2389 11.0668 68.5534 10.7103C68.8785 10.3434 69.3031 10.0708 69.8273 9.89252C70.3621 9.71427 70.9335 9.63564 71.5416 9.65661C72.0344 9.66709 72.5167 9.75621 72.9886 9.92397C73.4604 10.0917 73.8798 10.3224 74.2467 10.616C74.6137 10.8991 74.8863 11.2293 75.0646 11.6068L77.1878 10.3643C76.674 9.43118 75.8929 8.69199 74.8444 8.14678C73.7959 7.60156 72.6373 7.32895 71.3686 7.32895C70.3621 7.32895 69.4184 7.52292 68.5377 7.91087C67.657 8.29881 66.944 8.84927 66.3988 9.56224C65.8641 10.2752 65.5967 11.1193 65.5967 12.0944C65.5967 13.017 65.8378 13.7772 66.3201 14.3748C66.8129 14.962 67.484 15.4495 68.3333 15.8375C69.1825 16.2149 70.1471 16.54 71.2271 16.8126C71.7723 16.9698 72.307 17.1376 72.8313 17.3158C73.366 17.4836 73.8064 17.7195 74.1524 18.0236C74.5089 18.3172 74.6871 18.7261 74.6871 19.2503C74.6871 19.7431 74.5246 20.1677 74.1996 20.5242C73.885 20.8702 73.4761 21.1324 72.9728 21.3106C72.4696 21.4888 71.9296 21.578 71.3529 21.578C70.8077 21.578 70.2677 21.4836 69.733 21.2949C69.1983 21.1061 68.7264 20.8545 68.3175 20.54C67.9086 20.2254 67.6255 19.8899 67.4682 19.5334L65.2035 20.5085C65.4761 21.1586 65.9112 21.7352 66.5089 22.2385C67.117 22.7313 67.8195 23.1245 68.6163 23.4181ZM54.8332 24C53.3863 24 52.0652 23.6278 50.8699 22.8833C49.6851 22.1389 48.7362 21.1428 48.0233 19.8951C47.3208 18.6369 46.9695 17.2477 46.9695 15.7274C46.9695 14.574 47.174 13.4993 47.5829 12.5033C47.9918 11.4967 48.5527 10.616 49.2657 9.86107C49.9892 9.09567 50.828 8.49803 51.7821 8.06815C52.7362 7.63827 53.7533 7.42333 54.8332 7.42333C56.2801 7.42333 57.596 7.79554 58.7808 8.53997C59.9761 9.2844 60.925 10.2857 61.6274 11.5439C62.3404 12.8021 62.6969 14.1966 62.6969 15.7274C62.6969 16.8702 62.4925 17.9397 62.0835 18.9358C61.6746 19.9318 61.1084 20.8126 60.385 21.578C59.672 22.3329 58.8385 22.9253 57.8843 23.3552C56.9407 23.785 55.9236 24 54.8332 24ZM54.8332 21.3578C55.8188 21.3578 56.7048 21.1009 57.4911 20.5871C58.288 20.0629 58.9118 19.3761 59.3627 18.5269C59.824 17.6671 60.0547 16.7339 60.0547 15.7274C60.0547 14.6999 59.8188 13.7562 59.347 12.8965C58.8856 12.0367 58.2618 11.3499 57.4754 10.8362C56.689 10.3224 55.8083 10.0655 54.8332 10.0655C53.8476 10.0655 52.9617 10.3276 52.1753 10.8519C51.3889 11.3657 50.7651 12.0524 50.3037 12.9122C49.8424 13.7719 49.6117 14.7103 49.6117 15.7274C49.6117 16.7759 49.8476 17.73 50.3195 18.5898C50.7913 19.439 51.4256 20.1153 52.2225 20.6186C53.0193 21.1114 53.8896 21.3578 54.8332 21.3578ZM31.8281 23.1192C33.1387 23.7064 34.5384 24 36.0273 24C37.8097 24 39.4506 23.5911 40.95 22.7732C42.4493 21.9449 43.6918 20.844 44.6774 19.4705L42.334 18.1966C41.6 19.1402 40.6826 19.9056 39.5817 20.4928C38.4913 21.0694 37.3065 21.3578 36.0273 21.3578C34.9054 21.3578 33.8464 21.1324 32.8504 20.6815C31.8648 20.2202 30.9945 19.5858 30.2396 18.7785C29.4952 17.9711 28.908 17.038 28.4782 15.979C28.0588 14.92 27.8491 13.7877 27.8491 12.5819C27.8491 11.3866 28.0588 10.2595 28.4782 9.20051C28.8976 8.14153 29.4795 7.20837 30.2239 6.40104C30.9683 5.5937 31.8333 4.95936 32.8189 4.49802C33.815 4.03669 34.8844 3.80602 36.0273 3.80602C37.2645 3.80602 38.4388 4.09435 39.5502 4.67102C40.6721 5.23721 41.6 6.00261 42.334 6.96722L44.6774 5.70903C43.6918 4.33551 42.4493 3.23459 40.95 2.40628C39.4506 1.57797 37.8097 1.16382 36.0273 1.16382C34.5384 1.16382 33.1387 1.46264 31.8281 2.06028C30.5175 2.64743 29.3641 3.46526 28.3681 4.51375C27.3825 5.55176 26.6066 6.76277 26.0404 8.14678C25.4847 9.53078 25.2069 11.0092 25.2069 12.5819C25.2069 14.1546 25.4847 15.633 26.0404 17.017C26.6066 18.401 27.3825 19.6173 28.3681 20.6658C29.3641 21.7038 30.5175 22.5216 31.8281 23.1192ZM21.747 13.8086V23.5911H19.1048V14.3906C19.1048 13.5937 18.9108 12.8702 18.5229 12.2202C18.135 11.5701 17.616 11.0564 16.9659 10.6789C16.3158 10.291 15.5924 10.097 14.7955 10.097C14.0091 10.097 13.2857 10.291 12.6251 10.6789C11.9751 11.0564 11.4561 11.5701 11.0681 12.2202C10.6802 12.8702 10.4862 13.5937 10.4862 14.3906V23.5911H7.84401V7.86369H10.4862V9.82961C11.0419 9.09567 11.7444 8.51376 12.5937 8.08387C13.443 7.64351 14.3656 7.42333 15.3617 7.42333C16.536 7.42333 17.6055 7.71166 18.5701 8.28833C19.5452 8.85452 20.3158 9.61992 20.882 10.5845C21.4587 11.5491 21.747 12.6238 21.747 13.8086ZM0 1.57274V23.5911H2.6422V1.57274H0Z" fill="white"/>
</svg>
