<svg width="56" height="56" viewBox="0 0 56 56" fill="none" xmlns="http://www.w3.org/2000/svg">
<rect width="56" height="56" rx="8" fill="#1DA1F2"/>
<g clip-path="url(#clip0_536_1503)">
<path d="M23.5502 37.75C32.6045 37.75 37.5583 30.2467 37.5583 23.7419C37.5583 23.531 37.5536 23.3153 37.5442 23.1044C38.5079 22.4075 39.3395 21.5443 40 20.5553C39.1025 20.9546 38.1496 21.2154 37.1739 21.3288C38.2013 20.713 38.9705 19.7455 39.3391 18.6058C38.3726 19.1786 37.3156 19.5827 36.2134 19.8007C35.4708 19.0116 34.489 18.4892 33.4197 18.3141C32.3504 18.139 31.2532 18.3211 30.2977 18.8321C29.3423 19.3432 28.5818 20.1548 28.1338 21.1414C27.6859 22.128 27.5754 23.2347 27.8195 24.2903C25.8625 24.1921 23.9479 23.6838 22.2 22.7981C20.452 21.9125 18.9097 20.6695 17.673 19.1496C17.0444 20.2333 16.8521 21.5157 17.135 22.7361C17.418 23.9566 18.1551 25.0235 19.1964 25.72C18.4146 25.6952 17.65 25.4847 16.9656 25.106V25.1669C16.9649 26.3042 17.3581 27.4066 18.0783 28.2868C18.7985 29.167 19.8013 29.7706 20.9162 29.995C20.1921 30.1932 19.432 30.222 18.6948 30.0794C19.0095 31.0575 19.6216 31.9129 20.4458 32.5264C21.27 33.1398 22.2651 33.4806 23.2923 33.5013C21.5484 34.8712 19.3942 35.6142 17.1766 35.6107C16.7833 35.6101 16.3904 35.586 16 35.5385C18.2529 36.9838 20.8735 37.7514 23.5502 37.75Z" fill="white"/>
</g>
<defs>
<clipPath id="clip0_536_1503">
<rect width="24" height="24" fill="white" transform="translate(16 16)"/>
</clipPath>
</defs>
</svg>
